# xmcd
#
# Track frame offsets: 
#        150
#        23715
#        46817
#        71485
#        103300
#        127913
#        157250
#        182555
#        205068
#
# Disc length: 3274 seconds
#
# Revision: 0
# Processed by: cddbd v1.5.2PL0 Copyright (c) Steve Scherf et al.
# Submitted via: ExactAudioCopyFreeDBPlugin 1.0
#
DISCID=760cc809
DTITLE=South Side Slim - Live At The Alley, Santa Cruz, CA - CD1
DYEAR=2004
DGENRE=Blues
TTITLE0=South Side Groove
TTITLE1=Junkyard Dog
TTITLE2=Younger Days
TTITLE3=Sunset And Vine
TTITLE4=Tore Down
TTITLE5=Women Are My Weakness
TTITLE6=I Was Hooked
TTITLE7=The Things I Used To Do
TTITLE8=Take All My Money
EXTD=
EXTT0=
EXTT1=
EXTT2=
EXTT3=
EXTT4=
EXTT5=
EXTT6=
EXTT7=
EXTT8=
PLAYORDER=
